<svg xmlns="http://www.w3.org/2000/svg" width="300" height="234" viewBox="0 0 300 234">
  <defs>
    <style>
      .cls-1 {
        fill: #ffffff0d;
        fill-rule: evenodd;
      }
    </style>
  </defs>
  <path id="Andrix_Logo" data-name="Andrix" class="cls-1" d="M209.561,48.355l90.357,0.167h-0.332L74.606,179.245v0.167H90.522l19.73-11.5q-0.084,21.424-.166,42.852l-19.4-11.338L0,199.254H0.332L225.311,68.53V68.363H209.4L189.666,79.868V11.505L209.561,0V48.355ZM150.373,24.511l9.285,5.5V96.876l-19.895,11.505V54.19L110.252,71.365v54.357L90.522,137.06c0.318-27.183-.166-77.867-0.166-77.867S130.48,36.07,150.373,24.511Zm59.022,85.7q0.084,44.432.166,88.872l-19.9,11.505V121.72Zm-49.9,29.013q0.083,44.431.166,88.872l-9.782,5.836-10.113-6v-77.2Z"/>
</svg>
